<svg xmlns="http://www.w3.org/2000/svg" viewBox="0 0 379.75 72.54"><defs><style>.cls-1{fill:#fff;}</style></defs><g id="Слой_2" data-name="Слой 2"><g id="Слой_1-2" data-name="Слой 1"><path class="cls-1" d="M47.17,1.46l-6,45.35L38,71.07H10.46L0,1.46H19.09C19.91,7.65,21,16.81,21.94,28c1,12.75,1.37,22.13,1.9,22.12s.54-6.84,1.45-19c.53-7.08,1.11-12.88,1.53-16.73L28.08,1.46Z"/><path class="cls-1" d="M50.22,1.46H80.4V15.39H68.32v13.2H79.63V41.84H68.32v15.3H81.61V71.07H50.22Z"/><path class="cls-1" d="M129.08,31.77H111V19.68q0-5.28-.58-6.59a2.49,2.49,0,0,0-2.55-1.31c-1.5,0-2.44.53-2.84,1.59s-.6,3.36-.6,6.88V52.58c0,3.39.2,5.59.6,6.63a2.57,2.57,0,0,0,2.71,1.54,2.53,2.53,0,0,0,2.64-1.55c.42-1,.62-3.46.62-7.28V43.17h18.11v2.71q0,10.82-1.53,15.33c-1,3-3.27,5.66-6.75,7.92a23.1,23.1,0,0,1-12.88,3.41q-8,0-13.11-2.89a14,14,0,0,1-6.84-8q-1.68-5.1-1.68-15.33V26a91,91,0,0,1,.52-11.28,15.81,15.81,0,0,1,3.07-7.25A17.14,17.14,0,0,1,97,2a25.67,25.67,0,0,1,10.43-2q8,0,13.2,3.09a14.84,14.84,0,0,1,6.83,7.71q1.63,4.62,1.64,14.36Z"/><path class="cls-1" d="M172,1.46V15.39H161.28V71.07h-18.1V15.39H132.47V1.46Z"/><path class="cls-1" d="M217.52,42.22q0,10.5-.49,14.86A16.66,16.66,0,0,1,206.9,70.6a25.57,25.57,0,0,1-10.32,1.94,26.19,26.19,0,0,1-10-1.83,16.71,16.71,0,0,1-10.38-13.44,144.77,144.77,0,0,1-.52-15.05V30.31q0-10.48.5-14.85A16.62,16.62,0,0,1,186.26,1.93,25.58,25.58,0,0,1,196.58,0a26.19,26.19,0,0,1,10,1.83A16.71,16.71,0,0,1,217,15.26a145,145,0,0,1,.52,15.05Zm-18.1-22.87q0-4.86-.54-6.21a2.14,2.14,0,0,0-2.21-1.36,2.5,2.5,0,0,0-2.18,1.1q-.75,1.09-.75,6.47v32.5c0,4,.17,6.54.5,7.49a2.15,2.15,0,0,0,2.3,1.41,2.22,2.22,0,0,0,2.36-1.63q.53-1.63.52-7.78Z"/><path class="cls-1" d="M224.27,1.46h12.81q12.81,0,17.35,1a11.94,11.94,0,0,1,7.4,5.05q2.85,4.07,2.86,13,0,8.12-2,10.92t-8,3.35q5.37,1.34,7.22,3.57a10.7,10.7,0,0,1,2.31,4.11c.3,1.24.45,4.68.45,10.29V71.07H247.88V47.94q0-5.58-.89-6.92c-.58-.89-2.12-1.33-4.62-1.33V71.07h-18.1Zm18.1,11.91V28.85a8,8,0,0,0,4.28-.84q1.23-.84,1.23-5.44V18.75c0-2.21-.4-3.66-1.19-4.35S244.46,13.37,242.37,13.37Z"/><path class="cls-1" d="M289.07,1.46v9.07H271.18V1.46Zm0,12.56V71.07H271.18V14Z"/><path class="cls-1" d="M313,14l-.3,5.25a13.05,13.05,0,0,1,4.62-4.71,12.38,12.38,0,0,1,6.3-1.58,12,12,0,0,1,7.31,2.11,9.45,9.45,0,0,1,3.66,5.31,49,49,0,0,1,.81,10.69v40H318V31.56a37.69,37.69,0,0,0-.38-7.18c-.26-.86-1-1.29-2.15-1.29a2.15,2.15,0,0,0-2.33,1.48q-.47,1.48-.47,7.94V71.07H295.3V14Z"/><path class="cls-1" d="M356.87,36.12H340.58V32.29c0-4.41.5-7.82,1.52-10.21s3.06-4.51,6.13-6.34,7-2.76,11.95-2.76q8.82,0,13.29,3.12a12.14,12.14,0,0,1,5.37,7.66q.9,4.53.91,18.68V71.07h-16.9V66a10.61,10.61,0,0,1-10.11,6.12,14.74,14.74,0,0,1-8.36-2.56q-3.81-2.56-3.8-11.2V53.66q0-6.4,2-8.73t10-5.42q8.56-3.34,9.16-4.51a12,12,0,0,0,.6-4.73q0-4.47-.66-5.83a2.29,2.29,0,0,0-2.22-1.35q-1.75,0-2.19,1.14a23,23,0,0,0-.43,5.91Zm5.5,7.82c-2.78,2-4.39,3.74-4.83,5.12a20,20,0,0,0-.67,5.93c0,3,.19,4.86.58,5.72a2.28,2.28,0,0,0,2.3,1.29,2.14,2.14,0,0,0,2.13-1c.33-.67.49-2.44.49-5.31Z"/></g></g></svg>