<svg xmlns="http://www.w3.org/2000/svg" viewBox="0 0 374 374"><defs><style>.cls-1{fill:#4d4d4d;stroke:#fff;stroke-miterlimit:10;stroke-width:9px;}.cls-2{fill:#f7931e;}</style></defs><g id="Слой_2" data-name="Слой 2"><g id="Слой_1-2" data-name="Слой 1"><rect class="cls-1" x="4.5" y="4.5" width="365" height="365" rx="80.7"/><circle class="cls-2" cx="187" cy="187.41" r="83.19"/><polygon class="cls-2" points="187 19.76 161.37 83.1 212.63 83.1 187 19.76"/><polygon class="cls-2" points="305.83 68.57 242.92 95.24 279.17 131.49 305.83 68.57"/><polygon class="cls-2" points="354.95 186.05 291.61 160.42 291.61 211.68 354.95 186.05"/><polygon class="cls-2" points="306.14 304.89 279.47 241.97 243.23 278.22 306.14 304.89"/><polygon class="cls-2" points="187 354.24 212.63 290.9 161.37 290.9 187 354.24"/><polygon class="cls-2" points="68.17 305.43 131.08 278.76 94.83 242.51 68.17 305.43"/><polygon class="cls-2" points="19.05 187.95 82.39 213.58 82.39 162.32 19.05 187.95"/><polygon class="cls-2" points="67.86 69.11 94.53 132.03 130.77 95.78 67.86 69.11"/></g></g></svg>